<svg width="220" height="46" viewBox="0 0 220 46" fill="none" xmlns="http://www.w3.org/2000/svg">
<path d="M38.5106 22.655C38.0559 23.2137 37.6496 23.81 37.2959 24.4375L35.2187 23.7188L28.7499 25.875V32.2C28.7283 33.649 29.0483 35.0828 29.6838 36.3852C30.3194 37.6876 31.2528 38.822 32.4084 39.6966V40.1494C31.9391 40.53 31.3814 40.7861 30.7868 40.8941C30.1923 41.0021 29.5802 40.9584 29.007 40.7671C28.4338 40.5758 27.9181 40.2431 27.5076 39.7997C27.0971 39.3563 26.805 38.8165 26.6584 38.2303L25.1059 31.8909C24.989 31.4247 24.7198 31.0109 24.3408 30.7152C23.9619 30.4195 23.495 30.2589 23.0143 30.2589C22.5337 30.2589 22.0668 30.4195 21.6878 30.7152C21.3089 31.0109 21.0396 31.4247 20.9228 31.8909L19.3703 38.2303C19.1797 39.0131 18.7317 39.7093 18.0981 40.2069C17.4568 40.7044 16.6672 40.9727 15.8556 40.9688C15.0088 40.9428 14.1962 40.6288 13.552 40.0786C12.9077 39.5285 12.4704 38.7751 12.3121 37.9428C11.809 35.5134 11.1046 32.0634 10.5296 29.3178C10.3463 28.3892 10.0842 27.4779 9.7462 26.5938C9.21399 25.1664 8.45161 23.8359 7.48932 22.655C5.89763 20.7303 5.02818 18.3101 5.0312 15.8125C5.0312 15.4963 5.0312 15.1728 5.07432 14.8494C5.31062 12.338 6.41544 9.98769 8.19844 8.20338C9.98143 6.41907 12.3309 5.31252 14.8421 5.07438C15.1656 5.03125 15.489 5.03125 15.8124 5.03125C17.0034 5.03066 18.1862 5.22738 19.3128 5.61344C21.7051 6.44711 24.3091 6.44711 26.7015 5.61344C27.8236 5.22895 29.0014 5.03224 30.1874 5.03125C30.5037 5.03125 30.8271 5.03125 31.1506 5.07438C33.0522 5.25446 34.8725 5.93353 36.4274 7.04291C37.9823 8.1523 39.2166 9.65264 40.0056 11.3922C40.5034 12.4821 40.8121 13.6487 40.9184 14.8422C41.1773 17.6621 40.3119 20.4701 38.5106 22.655Z" fill="#A1D8DF"/>
<path d="M40.0128 11.3922C38.9753 14.7457 37.1347 17.7953 34.6509 20.2759C32.6513 22.2812 30.2751 23.8716 27.6589 24.9558C25.0428 26.04 22.2382 26.5967 19.4062 26.5938H15.4819C13.9479 26.5755 12.4373 26.2157 11.0598 25.5406C9.68225 24.8655 8.4724 23.8921 7.51813 22.6909V22.655C5.91607 20.7343 5.03632 18.3137 5.03125 15.8125C5.03125 15.4963 5.03125 15.1728 5.07437 14.8494C5.31067 12.338 6.4155 9.98769 8.19849 8.20338C9.98149 6.41907 12.331 5.31252 14.8422 5.07438C15.1656 5.03125 15.4891 5.03125 15.8125 5.03125C17.0034 5.03066 18.1862 5.22738 19.3128 5.61344C21.7052 6.44711 24.3092 6.44711 26.7016 5.61344C27.8236 5.22895 29.0014 5.03224 30.1875 5.03125C30.5037 5.03125 30.8272 5.03125 31.1506 5.07438C33.0535 5.25324 34.8753 5.93175 36.4315 7.04121C37.9878 8.15066 39.2233 9.65165 40.0128 11.3922Z" fill="#D1E6E9"/>
<path d="M41.6875 25.875V32.2C41.6875 36.4622 38.9778 40.1063 35.2187 40.9688C34.3177 40.7705 33.4619 40.4048 32.6959 39.8906C31.4567 39.0318 30.4483 37.8808 29.7601 36.5393C29.0718 35.1979 28.7249 33.7075 28.75 32.2V25.875L35.2187 23.7188L37.2959 24.4375L41.6875 25.875Z" fill="#30ACC2"/>
<path d="M34.5 34.5C34.4054 34.5006 34.3116 34.4824 34.224 34.4467C34.1365 34.4109 34.0568 34.3582 33.9897 34.2916L32.5522 32.8541C32.4168 32.7187 32.3408 32.5352 32.3408 32.3438C32.3408 32.1524 32.4168 31.9688 32.5522 31.8335C32.6875 31.6981 32.8711 31.6221 33.0625 31.6221C33.2539 31.6221 33.4375 31.6981 33.5728 31.8335L34.5 32.7678L37.5834 29.6772C37.7188 29.5419 37.9023 29.4658 38.0937 29.4658C38.2851 29.4658 38.4687 29.5419 38.604 29.6772C38.7394 29.8125 38.8154 29.9961 38.8154 30.1875C38.8154 30.3789 38.7394 30.5625 38.604 30.6978L35.0103 34.2916C34.9431 34.3582 34.8635 34.4109 34.7759 34.4467C34.6883 34.4824 34.5946 34.5006 34.5 34.5Z" fill="#D1E6E9"/>
<path d="M8.13622 8.99145C7.96491 8.99147 7.79923 8.93029 7.66903 8.81895C7.59729 8.7576 7.53834 8.68272 7.49554 8.59859C7.45275 8.51446 7.42694 8.42272 7.4196 8.32861C7.41226 8.2345 7.42352 8.13987 7.45276 8.05012C7.48199 7.96036 7.52861 7.87725 7.58997 7.80551C7.65635 7.72835 7.72843 7.65627 7.8056 7.58989C7.95047 7.46598 8.13863 7.4047 8.32869 7.41953C8.51875 7.43436 8.69513 7.52408 8.81903 7.66895C8.94294 7.81383 9.00422 8.00199 8.98939 8.19204C8.97457 8.3821 8.88485 8.55848 8.73997 8.68239L8.68247 8.73989C8.61499 8.81878 8.53122 8.88212 8.43692 8.92555C8.34262 8.96898 8.24004 8.99146 8.13622 8.99145ZM30.1372 41.6874C29.1719 41.6879 28.2343 41.3644 27.4746 40.7689C26.7149 40.1734 26.1769 39.3402 25.9468 38.4027L24.3943 32.0633C24.3164 31.7525 24.1369 31.4766 23.8843 31.2795C23.6317 31.0824 23.3204 30.9753 23 30.9753C22.6795 30.9753 22.3683 31.0824 22.1156 31.2795C21.863 31.4766 21.6835 31.7525 21.6056 32.0633L20.0531 38.4027C19.8301 39.3418 19.2924 40.1763 18.5293 40.7674C17.9519 41.2207 17.2683 41.5192 16.5433 41.6344C15.8183 41.7497 15.0759 41.678 14.3864 41.426C13.6968 41.1741 13.083 40.7503 12.6031 40.1949C12.1231 39.6394 11.7929 38.9706 11.6437 38.2518L10.925 34.7443C10.5584 32.9761 10.2062 31.0858 9.82528 29.4255C9.40139 27.1173 8.4138 24.9495 6.95028 23.1149C5.02803 20.7827 4.1011 17.7876 4.36997 14.7774C4.51775 13.1663 5.00785 11.6054 5.80747 10.199C5.90278 10.0331 6.06007 9.91192 6.24474 9.86205C6.4294 9.81217 6.62632 9.8377 6.79216 9.93301C6.958 10.0283 7.07919 10.1856 7.12906 10.3703C7.17894 10.5549 7.15341 10.7519 7.0581 10.9177C6.36148 12.1476 5.93742 13.513 5.81466 14.9211C5.57198 17.5523 6.3808 20.1726 8.06435 22.2093C9.68174 24.2267 10.7777 26.6112 11.2556 29.1524C11.6006 30.8055 11.9743 32.6958 12.3553 34.4711L13.074 37.9786C13.2113 38.6179 13.5624 39.1913 14.0694 39.6042C14.5764 40.0171 15.209 40.2448 15.8628 40.2499C16.5081 40.2484 17.1348 40.0336 17.6453 39.6389C18.1546 39.2539 18.5213 38.7102 18.6875 38.0936L20.24 31.7471C20.3958 31.1254 20.7548 30.5736 21.2601 30.1794C21.7653 29.7851 22.3878 29.571 23.0287 29.571C23.6696 29.571 24.2921 29.7851 24.7974 30.1794C25.3026 30.5736 25.6617 31.1254 25.8175 31.7471L27.3125 38.0936C27.4172 38.5213 27.6188 38.9191 27.9017 39.2566C28.1846 39.594 28.5412 39.8619 28.944 40.0397C29.3468 40.2175 29.785 40.3004 30.2249 40.282C30.6648 40.2636 31.0947 40.1444 31.4812 39.9336C30.3787 38.9727 29.4989 37.783 28.903 36.4474C28.3072 35.1117 28.0097 33.6622 28.0312 32.1999V30.1874C28.0312 29.9968 28.1069 29.8139 28.2417 29.6792C28.3765 29.5444 28.5593 29.4686 28.75 29.4686C28.9406 29.4686 29.1234 29.5444 29.2582 29.6792C29.393 29.8139 29.4687 29.9968 29.4687 30.1874V32.1999C29.4429 33.5849 29.7569 34.9552 30.3835 36.1907C31.01 37.4261 31.9298 38.4892 33.0625 39.2868C33.1497 39.3448 33.2232 39.4211 33.2779 39.5105C33.3325 39.5999 33.3669 39.7002 33.3787 39.8043C33.3912 39.9079 33.381 40.0131 33.3487 40.1124C33.3164 40.2117 33.2629 40.3027 33.1918 40.3793C33.0816 40.4969 32.964 40.6073 32.8397 40.7099C32.0771 41.3351 31.1233 41.6801 30.1372 41.6874ZM28.75 28.0311C28.5593 28.0311 28.3765 27.9554 28.2417 27.8206C28.1069 27.6858 28.0312 27.503 28.0312 27.3124V25.8749C28.023 25.7182 28.0664 25.563 28.1546 25.4333C28.2429 25.3035 28.3712 25.2061 28.52 25.1561L34.9887 22.9999C35.1379 22.9495 35.2995 22.9495 35.4487 22.9999L36.9797 23.5102C37.2752 23.0409 37.6018 22.5919 37.9572 22.1661C39.6362 20.1243 40.4444 17.5037 40.2068 14.8708C40.0712 13.3512 39.5917 11.8823 38.8047 10.5752C38.0178 9.2682 36.9439 8.15721 35.6643 7.32632C34.3847 6.49542 32.933 5.96637 31.4188 5.77918C29.9046 5.59199 28.3677 5.75156 26.9243 6.24583C24.3809 7.13321 21.6119 7.13321 19.0684 6.24583C17.7308 5.79298 16.3134 5.62407 14.9068 5.74989C13.4987 5.87265 12.1333 6.29671 10.9034 6.99333C10.7376 7.08864 10.5407 7.11417 10.356 7.06429C10.1713 7.01442 10.014 6.89323 9.91872 6.72739C9.82341 6.56155 9.79788 6.36463 9.84775 6.17997C9.89763 5.9953 10.0188 5.83801 10.1847 5.7427C11.5911 4.94308 13.152 4.45298 14.7631 4.3052C16.3719 4.16208 17.9928 4.35796 19.5212 4.8802C21.7606 5.67103 24.2034 5.67103 26.4428 4.8802C28.8107 4.06965 31.3784 4.05373 33.7562 4.83484C36.134 5.61595 38.1921 7.15145 39.618 9.2083C41.044 11.2651 41.76 13.731 41.6575 16.2317C41.5549 18.7325 40.6393 21.1314 39.0497 23.0646C38.6199 23.5802 38.2374 24.1335 37.9068 24.7177C37.824 24.8625 37.6933 24.974 37.5373 25.033C37.3812 25.092 37.2095 25.0949 37.0515 25.0411L35.2187 24.4733L29.4687 26.3924V27.3124C29.4687 27.503 29.393 27.6858 29.2582 27.8206C29.1234 27.9554 28.9406 28.0311 28.75 28.0311Z" fill="#03426D"/>
<path d="M23 11.4999C20.0945 11.4464 17.2484 10.6681 14.72 9.23582C14.6224 9.19852 14.5341 9.14039 14.4613 9.06548C14.3885 8.99058 14.3328 8.90069 14.2983 8.8021C14.2638 8.7035 14.2511 8.59855 14.2613 8.49458C14.2714 8.3906 14.3041 8.29008 14.3571 8.20003C14.4101 8.10998 14.482 8.03256 14.568 7.97317C14.6539 7.91377 14.7518 7.87382 14.8548 7.85611C14.9577 7.8384 15.0633 7.84334 15.1642 7.8706C15.265 7.89786 15.3587 7.94678 15.4387 8.01395C17.7565 9.298 20.351 10.0009 23 10.0624C25.6396 9.99941 28.2245 9.29646 30.5325 8.01395C30.6125 7.94678 30.7062 7.89786 30.8071 7.8706C30.9079 7.84334 31.0135 7.8384 31.1165 7.85611C31.2194 7.87382 31.3173 7.91377 31.4032 7.97317C31.4892 8.03256 31.5611 8.10998 31.6141 8.20003C31.6671 8.29008 31.6998 8.3906 31.7099 8.49458C31.7201 8.59855 31.7075 8.7035 31.6729 8.8021C31.6384 8.90069 31.5828 8.99058 31.5099 9.06548C31.4371 9.14039 31.3488 9.19852 31.2512 9.23582C28.7313 10.6635 25.8957 11.4416 23 11.4999ZM35.2187 41.6874H35.0606C34.0726 41.4673 33.1342 41.0652 32.2934 40.5014C30.9587 39.5713 29.8723 38.3283 29.1293 36.881C28.3863 35.4338 28.0093 33.8266 28.0312 32.1999V30.1874C28.0312 29.9968 28.107 29.8139 28.2418 29.6792C28.3765 29.5444 28.5594 29.4686 28.75 29.4686C28.9406 29.4686 29.1234 29.5444 29.2582 29.6792C29.393 29.8139 29.4687 29.9968 29.4687 30.1874V32.1999C29.4429 33.5849 29.757 34.9552 30.3835 36.1907C31.01 37.4261 31.9298 38.4892 33.0625 39.2868C33.716 39.7374 34.447 40.0639 35.2187 40.2499C38.5609 39.4233 40.9687 36.0739 40.9687 32.2214V26.3924L35.2187 24.4733L29.4687 26.3924V27.3124C29.4687 27.503 29.393 27.6858 29.2582 27.8206C29.1234 27.9554 28.9406 28.0311 28.75 28.0311C28.5594 28.0311 28.3765 27.9554 28.2418 27.8206C28.107 27.6858 28.0312 27.503 28.0312 27.3124V25.8749C28.0231 25.7182 28.0664 25.563 28.1547 25.4333C28.2429 25.3035 28.3712 25.2061 28.52 25.1561L34.9887 22.9999C35.1379 22.9495 35.2995 22.9495 35.4487 22.9999L41.9175 25.1561C42.0663 25.2061 42.1946 25.3035 42.2828 25.4333C42.3711 25.563 42.4144 25.7182 42.4062 25.8749V32.1999C42.4062 36.7855 39.4522 40.7674 35.3769 41.673L35.2187 41.6874Z" fill="#03426D"/>
<path d="M58.4526 37.5H48.1401V8.40909H58.5379C61.464 8.40909 63.9829 8.99148 66.0947 10.1562C68.2064 11.3116 69.8305 12.9735 70.9668 15.142C72.1127 17.3106 72.6856 19.9053 72.6856 22.9261C72.6856 25.9564 72.1127 28.5606 70.9668 30.7386C69.8305 32.9167 68.1969 34.5881 66.0663 35.7528C63.9451 36.9176 61.4072 37.5 58.4526 37.5ZM54.2907 32.2301H58.1969C60.0151 32.2301 61.5445 31.9081 62.785 31.2642C64.035 30.6108 64.9725 29.6023 65.5975 28.2386C66.232 26.8655 66.5492 25.0947 66.5492 22.9261C66.5492 20.7765 66.232 19.0199 65.5975 17.6562C64.9725 16.2926 64.0397 15.2888 62.7992 14.6449C61.5587 14.0009 60.0293 13.679 58.2111 13.679H54.2907V32.2301ZM85.4712 37.9261C83.2269 37.9261 81.2951 37.4716 79.6758 36.5625C78.0659 35.6439 76.8254 34.3466 75.9542 32.6705C75.083 30.9848 74.6474 28.9915 74.6474 26.6903C74.6474 24.446 75.083 22.4763 75.9542 20.7812C76.8254 19.0862 78.0517 17.7652 79.6332 16.8182C81.2241 15.8712 83.0896 15.3977 85.2298 15.3977C86.6692 15.3977 88.0091 15.6297 89.2496 16.0938C90.4996 16.5483 91.5887 17.2348 92.5167 18.1534C93.4542 19.072 94.1834 20.2273 94.7042 21.6193C95.225 23.0019 95.4854 24.6212 95.4854 26.4773V28.1392H77.0621V24.3892H89.7894C89.7894 23.518 89.6 22.7462 89.2212 22.0739C88.8424 21.4015 88.3169 20.8759 87.6445 20.4972C86.9817 20.1089 86.2099 19.9148 85.3292 19.9148C84.4106 19.9148 83.5962 20.1278 82.886 20.554C82.1852 20.9706 81.636 21.5341 81.2383 22.2443C80.8406 22.9451 80.637 23.7263 80.6275 24.5881V28.1534C80.6275 29.233 80.8263 30.1657 81.2241 30.9517C81.6313 31.7377 82.2042 32.3438 82.9428 32.7699C83.6815 33.196 84.5574 33.4091 85.5707 33.4091C86.243 33.4091 86.8585 33.3144 87.4173 33.125C87.976 32.9356 88.4542 32.6515 88.8519 32.2727C89.2496 31.8939 89.5527 31.4299 89.761 30.8807L95.3576 31.25C95.0735 32.5947 94.4911 33.7689 93.6104 34.7727C92.7392 35.767 91.6123 36.5436 90.2298 37.1023C88.8567 37.6515 87.2705 37.9261 85.4712 37.9261ZM103.885 24.8864V37.5H97.8343V15.6818H103.601V19.5312H103.857C104.34 18.2623 105.15 17.2585 106.286 16.5199C107.422 15.7718 108.8 15.3977 110.42 15.3977C111.935 15.3977 113.256 15.7292 114.383 16.392C115.509 17.0549 116.385 18.0019 117.01 19.233C117.635 20.4545 117.948 21.9129 117.948 23.608V37.5H111.897V24.6875C111.906 23.3523 111.565 22.3106 110.874 21.5625C110.183 20.8049 109.231 20.4261 108.019 20.4261C107.205 20.4261 106.485 20.6013 105.86 20.9517C105.244 21.3021 104.761 21.8134 104.411 22.4858C104.07 23.1487 103.895 23.9489 103.885 24.8864ZM132.722 15.6818V20.2273H119.583V15.6818H132.722ZM122.566 10.4545H128.617V30.7955C128.617 31.3542 128.702 31.7898 128.873 32.1023C129.043 32.4053 129.28 32.6184 129.583 32.7415C129.896 32.8646 130.255 32.9261 130.663 32.9261C130.947 32.9261 131.231 32.9025 131.515 32.8551C131.799 32.7983 132.017 32.7557 132.168 32.7273L133.12 37.2301C132.817 37.3248 132.391 37.4337 131.842 37.5568C131.292 37.6894 130.625 37.7699 129.839 37.7983C128.38 37.8551 127.102 37.661 126.003 37.2159C124.914 36.7708 124.067 36.0795 123.461 35.142C122.855 34.2045 122.557 33.0208 122.566 31.5909V10.4545ZM160.845 18.5938H154.624C154.51 17.7888 154.278 17.0739 153.928 16.4489C153.577 15.8144 153.127 15.2746 152.578 14.8295C152.029 14.3845 151.394 14.0436 150.675 13.8068C149.965 13.5701 149.193 13.4517 148.359 13.4517C146.854 13.4517 145.542 13.8258 144.425 14.5739C143.307 15.3125 142.441 16.392 141.825 17.8125C141.21 19.2235 140.902 20.9375 140.902 22.9545C140.902 25.0284 141.21 26.7708 141.825 28.1818C142.45 29.5928 143.322 30.6581 144.439 31.3778C145.556 32.0975 146.849 32.4574 148.317 32.4574C149.141 32.4574 149.903 32.3485 150.604 32.1307C151.314 31.9129 151.944 31.5956 152.493 31.179C153.042 30.7528 153.497 30.2367 153.857 29.6307C154.226 29.0246 154.482 28.3333 154.624 27.5568L160.845 27.5852C160.684 28.9205 160.282 30.2083 159.638 31.4489C159.003 32.6799 158.146 33.7831 157.067 34.7585C155.997 35.7244 154.718 36.4915 153.232 37.0597C151.754 37.6184 150.083 37.8977 148.217 37.8977C145.623 37.8977 143.303 37.3106 141.257 36.1364C139.221 34.9621 137.611 33.2623 136.428 31.0369C135.253 28.8116 134.666 26.1174 134.666 22.9545C134.666 19.7822 135.263 17.0833 136.456 14.858C137.649 12.6326 139.269 10.9375 141.314 9.77273C143.359 8.59848 145.661 8.01136 148.217 8.01136C149.903 8.01136 151.466 8.24811 152.905 8.72159C154.354 9.19508 155.637 9.88636 156.754 10.7955C157.872 11.6951 158.781 12.7983 159.482 14.1051C160.192 15.4119 160.646 16.9081 160.845 18.5938ZM169.764 37.9119C168.372 37.9119 167.131 37.6705 166.042 37.1875C164.953 36.6951 164.091 35.9706 163.457 35.0142C162.832 34.0483 162.519 32.8456 162.519 31.4062C162.519 30.1941 162.742 29.1761 163.187 28.3523C163.632 27.5284 164.238 26.8655 165.005 26.3636C165.772 25.8617 166.643 25.483 167.619 25.2273C168.604 24.9716 169.636 24.7917 170.715 24.6875C171.984 24.5549 173.007 24.4318 173.784 24.3182C174.56 24.1951 175.124 24.0152 175.474 23.7784C175.824 23.5417 176 23.1913 176 22.7273V22.642C176 21.7424 175.715 21.0464 175.147 20.554C174.589 20.0616 173.793 19.8153 172.761 19.8153C171.672 19.8153 170.805 20.0568 170.161 20.5398C169.517 21.0133 169.091 21.6098 168.883 22.3295L163.286 21.875C163.571 20.5492 164.129 19.4034 164.963 18.4375C165.796 17.4621 166.871 16.714 168.187 16.1932C169.513 15.6629 171.047 15.3977 172.789 15.3977C174.001 15.3977 175.161 15.5398 176.269 15.8239C177.387 16.108 178.376 16.5483 179.238 17.1449C180.109 17.7415 180.796 18.5085 181.298 19.446C181.8 20.3741 182.051 21.4867 182.051 22.7841V37.5H176.312V34.4744H176.142C175.791 35.1562 175.322 35.7576 174.735 36.2784C174.148 36.7898 173.443 37.1922 172.619 37.4858C171.795 37.7699 170.843 37.9119 169.764 37.9119ZM171.497 33.7358C172.387 33.7358 173.173 33.5606 173.855 33.2102C174.536 32.8504 175.071 32.3674 175.46 31.7614C175.848 31.1553 176.042 30.4687 176.042 29.7017V27.3864C175.853 27.5095 175.592 27.6231 175.261 27.7273C174.939 27.822 174.574 27.9119 174.167 27.9972C173.76 28.0729 173.353 28.1439 172.946 28.2102C172.538 28.267 172.169 28.3191 171.838 28.3665C171.127 28.4706 170.507 28.6364 169.977 28.8636C169.446 29.0909 169.035 29.3987 168.741 29.7869C168.447 30.1657 168.301 30.6392 168.301 31.2074C168.301 32.0312 168.599 32.661 169.196 33.0966C169.802 33.5227 170.569 33.7358 171.497 33.7358ZM185.145 37.5V15.6818H191.012V19.4886H191.239C191.637 18.1345 192.304 17.1117 193.242 16.4205C194.179 15.7197 195.259 15.3693 196.48 15.3693C196.783 15.3693 197.11 15.3883 197.461 15.4261C197.811 15.464 198.119 15.5161 198.384 15.5824V20.9517C198.1 20.8665 197.707 20.7907 197.205 20.7244C196.703 20.6581 196.244 20.625 195.827 20.625C194.937 20.625 194.141 20.8191 193.441 21.2074C192.749 21.5862 192.2 22.1165 191.793 22.7983C191.395 23.4801 191.196 24.2661 191.196 25.1562V37.5H185.145ZM208.84 37.9261C206.596 37.9261 204.664 37.4716 203.045 36.5625C201.435 35.6439 200.194 34.3466 199.323 32.6705C198.452 30.9848 198.016 28.9915 198.016 26.6903C198.016 24.446 198.452 22.4763 199.323 20.7812C200.194 19.0862 201.42 17.7652 203.002 16.8182C204.593 15.8712 206.458 15.3977 208.599 15.3977C210.038 15.3977 211.378 15.6297 212.618 16.0938C213.868 16.5483 214.957 17.2348 215.885 18.1534C216.823 19.072 217.552 20.2273 218.073 21.6193C218.594 23.0019 218.854 24.6212 218.854 26.4773V28.1392H200.431V24.3892H213.158C213.158 23.518 212.969 22.7462 212.59 22.0739C212.211 21.4015 211.686 20.8759 211.013 20.4972C210.35 20.1089 209.579 19.9148 208.698 19.9148C207.779 19.9148 206.965 20.1278 206.255 20.554C205.554 20.9706 205.005 21.5341 204.607 22.2443C204.209 22.9451 204.006 23.7263 203.996 24.5881V28.1534C203.996 29.233 204.195 30.1657 204.593 30.9517C205 31.7377 205.573 32.3438 206.312 32.7699C207.05 33.196 207.926 33.4091 208.939 33.4091C209.612 33.4091 210.227 33.3144 210.786 33.125C211.345 32.9356 211.823 32.6515 212.221 32.2727C212.618 31.8939 212.921 31.4299 213.13 30.8807L218.726 31.25C218.442 32.5947 217.86 33.7689 216.979 34.7727C216.108 35.767 214.981 36.5436 213.599 37.1023C212.225 37.6515 210.639 37.9261 208.84 37.9261Z" fill="#053549"/>
</svg>
