<svg width="62" height="58" viewBox="0 0 62 58" fill="none" xmlns="http://www.w3.org/2000/svg">
<path d="M31 14.5C27.084 14.4325 23.2479 13.4513 19.84 11.6453C19.7085 11.5983 19.5895 11.525 19.4913 11.4306C19.3932 11.3361 19.3182 11.2228 19.2716 11.0985C19.2251 10.9741 19.2081 10.8418 19.2218 10.7107C19.2354 10.5796 19.2795 10.4529 19.3509 10.3393C19.4223 10.2258 19.5193 10.1282 19.6351 10.0533C19.751 9.9784 19.8829 9.92803 20.0217 9.9057C20.1604 9.88336 20.3027 9.8896 20.4387 9.92397C20.5746 9.95834 20.7009 10.02 20.8088 10.1047C23.9327 11.7237 27.4297 12.61 31 12.6875C34.5578 12.6081 38.0417 11.7218 41.1525 10.1047C41.2604 10.02 41.3867 9.95834 41.5226 9.92397C41.6585 9.8896 41.8008 9.88336 41.9396 9.9057C42.0784 9.92803 42.2103 9.9784 42.3261 10.0533C42.442 10.1282 42.539 10.2258 42.6104 10.3393C42.6817 10.4529 42.7258 10.5796 42.7395 10.7107C42.7532 10.8418 42.7362 10.9741 42.6896 11.0985C42.6431 11.2228 42.5681 11.3361 42.4699 11.4306C42.3718 11.525 42.2528 11.5983 42.1213 11.6453C38.7248 13.4455 34.9029 14.4265 31 14.5Z" fill="#68C7D3"/>
<path d="M21.3125 7.34375C22.8144 7.34305 24.3058 7.57455 25.7246 8.0293C29.1475 9.14418 32.87 9.14382 36.293 8.0293L36.2939 8.03027C37.7069 7.57732 39.1918 7.345 40.6875 7.34375C41.1235 7.34375 41.4981 7.34519 41.8623 7.39062L41.8789 7.39258L41.8965 7.39453C44.329 7.61311 46.6497 8.43591 48.6182 9.77246C50.5863 11.1088 52.1283 12.9076 53.0918 14.9766L53.0938 14.9814C53.6703 16.2025 54.0284 17.5014 54.1553 18.8271V18.8281C54.4715 22.0935 53.4011 25.3552 51.1553 27.9043L51.1455 27.916C48.9662 30.4679 47.4828 33.4853 46.8311 36.707C46.0371 40.33 45.059 44.7589 44.3809 47.8311C44.2092 48.5998 43.7603 49.3052 43.0908 49.8232C42.4203 50.3421 41.5717 50.6388 40.6836 50.6533C39.7954 50.6678 38.9349 50.399 38.2441 49.9014C37.6408 49.4666 37.2015 48.8829 36.9668 48.2324L36.8789 47.9492L34.7861 39.957L34.7852 39.9512L34.6895 39.6504C34.4374 38.9595 33.9794 38.359 33.3779 37.9199C32.6915 37.4189 31.8542 37.1523 31 37.1523C30.1458 37.1523 29.3085 37.4189 28.6221 37.9199C27.9349 38.4216 27.4339 39.1338 27.2148 39.9512L27.2139 39.957L25.1221 47.9473C24.92 48.7106 24.4428 49.4017 23.752 49.8975C23.0599 50.394 22.1988 50.6607 21.3105 50.6445C20.4225 50.6283 19.5746 50.3306 18.9053 49.8105C18.237 49.2911 17.789 48.5845 17.6191 47.8154C16.9419 44.7473 15.963 40.274 15.1689 36.6865H15.168C15.1168 36.4482 15.0577 36.2149 15.001 36.002C14.3008 33.0325 12.8794 30.2596 10.8535 27.8965L10.8438 27.8848L10.4824 27.457C8.72879 25.2879 7.78167 22.6482 7.78125 19.9375L7.78809 19.3691C7.79431 19.193 7.80588 19.0272 7.8291 18.8643L7.83203 18.8438L7.83398 18.8232C8.12736 15.9064 9.50023 13.1639 11.7334 11.0732C13.9678 8.98142 16.923 7.6758 20.0928 7.39453L20.1104 7.39258L20.1289 7.39062C20.3107 7.36796 20.495 7.3556 20.6895 7.34961L21.3125 7.34375Z" fill="white" stroke="#30ACC2" stroke-width="2"/>
<path d="M57.1562 24.4688H39.7188C39.4618 24.4688 39.2154 24.3733 39.0337 24.2033C38.8521 24.0334 38.75 23.8029 38.75 23.5625C38.75 23.3221 38.8521 23.0916 39.0337 22.9217C39.2154 22.7517 39.4618 22.6562 39.7188 22.6562H57.1562C57.4132 22.6562 57.6596 22.7517 57.8413 22.9217C58.0229 23.0916 58.125 23.3221 58.125 23.5625C58.125 23.8029 58.0229 24.0334 57.8413 24.2033C57.6596 24.3733 57.4132 24.4688 57.1562 24.4688ZM22.2812 24.4688H4.84375C4.58682 24.4688 4.34042 24.3733 4.15874 24.2033C3.97706 24.0334 3.875 23.8029 3.875 23.5625C3.875 23.3221 3.97706 23.0916 4.15874 22.9217C4.34042 22.7517 4.58682 22.6562 4.84375 22.6562H22.2812C22.5382 22.6562 22.7846 22.7517 22.9663 22.9217C23.1479 23.0916 23.25 23.3221 23.25 23.5625C23.25 23.8029 23.1479 24.0334 22.9663 24.2033C22.7846 24.3733 22.5382 24.4688 22.2812 24.4688Z" fill="#30ACC2"/>
<path d="M25.1875 19.125H36.8125C37.9292 19.125 38.7188 19.9563 38.7188 20.8438V26.2812C38.7188 27.1687 37.9292 28 36.8125 28H25.1875C24.0708 28 23.2812 27.1687 23.2812 26.2812V20.8438C23.2812 19.9563 24.0708 19.125 25.1875 19.125Z" fill="white" stroke="#30ACC2" stroke-width="2"/>
<path d="M35.8438 24.4688H26.1562C25.8993 24.4688 25.6529 24.3733 25.4712 24.2033C25.2896 24.0334 25.1875 23.8029 25.1875 23.5625C25.1875 23.3221 25.2896 23.0916 25.4712 22.9217C25.6529 22.7517 25.8993 22.6562 26.1562 22.6562H35.8438C36.1007 22.6562 36.3471 22.7517 36.5288 22.9217C36.7104 23.0916 36.8125 23.3221 36.8125 23.5625C36.8125 23.8029 36.7104 24.0334 36.5288 24.2033C36.3471 24.3733 36.1007 24.4688 35.8438 24.4688Z" fill="#30ACC2"/>
<path d="M28.0938 26.2812C27.8368 26.2812 27.5904 26.1858 27.4087 26.0158C27.2271 25.8459 27.125 25.6154 27.125 25.375V21.75C27.125 21.5096 27.2271 21.2791 27.4087 21.1092C27.5904 20.9392 27.8368 20.8438 28.0938 20.8438C28.3507 20.8438 28.5971 20.9392 28.7788 21.1092C28.9604 21.2791 29.0625 21.5096 29.0625 21.75V25.375C29.0625 25.6154 28.9604 25.8459 28.7788 26.0158C28.5971 26.1858 28.3507 26.2812 28.0938 26.2812ZM33.9062 26.2812C33.6493 26.2812 33.4029 26.1858 33.2212 26.0158C33.0396 25.8459 32.9375 25.6154 32.9375 25.375V21.75C32.9375 21.5096 33.0396 21.2791 33.2212 21.1092C33.4029 20.9392 33.6493 20.8438 33.9062 20.8438C34.1632 20.8438 34.4096 20.9392 34.5913 21.1092C34.7729 21.2791 34.875 21.5096 34.875 21.75V25.375C34.875 25.6154 34.7729 25.8459 34.5913 26.0158C34.4096 26.1858 34.1632 26.2812 33.9062 26.2812Z" fill="#30ACC2"/>
</svg>
