<svg width="62" height="58" viewBox="0 0 62 58" fill="none" xmlns="http://www.w3.org/2000/svg">
<path d="M51.9056 28.565C51.2928 29.2694 50.7451 30.0213 50.2684 30.8125L47.4687 29.9062L38.75 32.625V40.6C38.7208 42.4271 39.1521 44.2349 40.0087 45.877C40.8654 47.5191 42.1234 48.9495 43.6809 50.0522V50.6231C43.0484 51.103 42.2967 51.426 41.4954 51.5621C40.694 51.6982 39.869 51.6432 39.0964 51.402C38.3239 51.1608 37.6288 50.7412 37.0755 50.1822C36.5222 49.6231 36.1286 48.9425 35.9309 48.2034L33.8384 40.2103C33.6809 39.6224 33.318 39.1007 32.8072 38.7278C32.2965 38.355 31.6672 38.1525 31.0194 38.1525C30.3715 38.1525 29.7422 38.355 29.2315 38.7278C28.7207 39.1007 28.3578 39.6224 28.2003 40.2103L26.1078 48.2034C25.851 49.1905 25.2471 50.0682 24.3931 50.6956C23.5288 51.323 22.4646 51.6612 21.3706 51.6562C20.2293 51.6235 19.1341 51.2276 18.2657 50.5339C17.3974 49.8403 16.808 48.8903 16.5947 47.8409C15.9165 44.7778 14.9672 40.4278 14.1922 36.9659C13.945 35.7951 13.5918 34.646 13.1362 33.5312C12.4189 31.7316 11.3913 30.054 10.0944 28.565C7.94903 26.1382 6.77717 23.0866 6.78123 19.9375C6.78123 19.5388 6.78123 19.1309 6.83935 18.7231C7.15784 15.5566 8.64695 12.5932 11.0501 10.3434C13.4533 8.09361 16.62 6.69839 20.0047 6.39813C20.4406 6.34375 20.8765 6.34375 21.3125 6.34375C22.9176 6.343 24.5118 6.59105 26.0303 7.07781C29.2548 8.12897 32.7645 8.12897 35.989 7.07781C37.5014 6.59302 39.0888 6.345 40.6875 6.34375C41.1137 6.34375 41.5497 6.34375 41.9856 6.39813C44.5486 6.62518 47.0021 7.48141 49.0978 8.8802C51.1936 10.279 52.8572 12.1707 53.9206 14.3641C54.5916 15.7383 55.0076 17.2093 55.1509 18.7141C55.4999 22.2696 54.3335 25.8101 51.9056 28.565Z" fill="white"/>
<path d="M53.9303 14.3641C52.5319 18.5925 50.0511 22.4375 46.7034 25.5653C44.0082 28.0937 40.8056 30.099 37.2794 31.4661C33.7533 32.8331 29.9732 33.5349 26.1563 33.5313H20.8669C18.7994 33.5082 16.7633 33.0546 14.9067 32.2034C13.05 31.3522 11.4193 30.1248 10.1331 28.6103V28.565C7.97384 26.1432 6.78808 23.0911 6.78125 19.9375C6.78125 19.5388 6.78125 19.1309 6.83937 18.7231C7.15786 15.5566 8.64697 12.5932 11.0501 10.3434C13.4533 8.09361 16.62 6.69839 20.0047 6.39813C20.4406 6.34375 20.8766 6.34375 21.3125 6.34375C22.9177 6.343 24.5118 6.59105 26.0303 7.07781C29.2548 8.12897 32.7646 8.12897 35.9891 7.07781C37.5014 6.59302 39.0889 6.345 40.6875 6.34375C41.1138 6.34375 41.5497 6.34375 41.9856 6.39813C44.5503 6.62365 47.0058 7.47917 49.1034 8.87804C51.201 10.2769 52.8661 12.1695 53.9303 14.3641Z" fill="white"/>
<path d="M56.1875 32.625V40.6C56.1875 45.9741 52.5353 50.5688 47.4688 51.6562C46.2543 51.4063 45.1009 50.9452 44.0684 50.2969C42.3982 49.214 41.0391 47.7627 40.1115 46.0713C39.1838 44.38 38.7162 42.5007 38.75 40.6V32.625L47.4688 29.9062L50.2684 30.8125L56.1875 32.625Z" fill="white"/>
<path d="M46.5 43.5C46.3725 43.5007 46.2461 43.4778 46.1281 43.4327C46.0101 43.3876 45.9027 43.3212 45.8122 43.2372L43.8747 41.4247C43.6923 41.254 43.5898 41.0226 43.5898 40.7812C43.5898 40.5399 43.6923 40.3085 43.8747 40.1378C44.0571 39.9671 44.3045 39.8713 44.5625 39.8713C44.8205 39.8713 45.0679 39.9671 45.2503 40.1378L46.5 41.3159L50.6559 37.419C50.8384 37.2484 51.0858 37.1525 51.3437 37.1525C51.6017 37.1525 51.8491 37.2484 52.0316 37.419C52.214 37.5897 52.3165 37.8212 52.3165 38.0625C52.3165 38.3038 52.214 38.5353 52.0316 38.7059L47.1878 43.2372C47.0973 43.3212 46.9899 43.3876 46.8719 43.4327C46.7539 43.4778 46.6275 43.5007 46.5 43.5Z" fill="#30ACC2"/>
<path d="M10.9662 11.3372C10.7353 11.3372 10.512 11.2601 10.3366 11.1197C10.2399 11.0423 10.1604 10.9479 10.1027 10.8418C10.045 10.7358 10.0103 10.6201 10.0004 10.5014C9.99046 10.3828 10.0056 10.2635 10.0451 10.1503C10.0845 10.0371 10.1473 9.93233 10.23 9.84188C10.3195 9.74458 10.4166 9.6537 10.5206 9.57001C10.7159 9.41378 10.9695 9.33651 11.2257 9.35521C11.4818 9.3739 11.7196 9.48703 11.8866 9.66969C12.0536 9.85236 12.1362 10.0896 12.1162 10.3292C12.0962 10.5689 11.9753 10.7913 11.78 10.9475L11.7025 11.02C11.6115 11.1195 11.4986 11.1993 11.3715 11.2541C11.2444 11.3089 11.1062 11.3372 10.9662 11.3372ZM40.6197 52.5625C39.3186 52.5631 38.055 52.1553 37.031 51.4044C36.007 50.6535 35.282 49.603 34.9719 48.4209L32.8794 40.4278C32.7744 40.0359 32.5324 39.688 32.1919 39.4395C31.8514 39.1909 31.4319 39.0559 31 39.0559C30.5681 39.0559 30.1486 39.1909 29.8081 39.4395C29.4676 39.688 29.2256 40.0359 29.1206 40.4278L27.0281 48.4209C26.7276 49.605 26.0028 50.6572 24.9744 51.4025C24.1961 51.9741 23.2748 52.3504 22.2976 52.4957C21.3204 52.6411 20.3197 52.5506 19.3903 52.233C18.461 51.9153 17.6337 51.381 16.9868 50.6806C16.3399 49.9802 15.8948 49.1369 15.6937 48.2306L14.725 43.8081C14.2309 41.5788 13.7562 39.1953 13.2428 37.1019C12.6715 34.1915 11.3404 31.4582 9.36781 29.145C6.77694 26.2045 5.5276 22.428 5.88999 18.6325C6.08918 16.6012 6.74974 14.633 7.82749 12.8597C7.95596 12.6506 8.16796 12.4978 8.41685 12.4349C8.66575 12.372 8.93115 12.4042 9.15468 12.5244C9.37821 12.6446 9.54155 12.8429 9.60877 13.0757C9.67599 13.3086 9.64158 13.5568 9.51312 13.7659C8.5742 15.3167 8.00264 17.0382 7.83718 18.8138C7.51009 22.1314 8.60025 25.4352 10.8694 28.0031C13.0493 30.5469 14.5265 33.5534 15.1706 36.7575C15.6356 38.8419 16.1394 41.2253 16.6528 43.4638L17.6216 47.8863C17.8066 48.6923 18.2798 49.4152 18.9631 49.9359C19.6465 50.4565 20.4991 50.7436 21.3803 50.75C22.25 50.7481 23.0947 50.4773 23.7828 49.9797C24.4693 49.4942 24.9636 48.8086 25.1875 48.0313L27.28 40.0291C27.49 39.2452 27.9739 38.5495 28.6549 38.0524C29.3359 37.5553 30.175 37.2853 31.0387 37.2853C31.9025 37.2853 32.7416 37.5553 33.4226 38.0524C34.1036 38.5495 34.5875 39.2452 34.7975 40.0291L36.8125 48.0313C36.9537 48.5705 37.2254 49.0721 37.6067 49.4975C37.9879 49.923 38.4686 50.2608 39.0115 50.485C39.5544 50.7091 40.1451 50.8137 40.738 50.7905C41.3309 50.7673 41.9102 50.617 42.4312 50.3513C40.9452 49.1397 39.7594 47.6396 38.9563 45.9555C38.1532 44.2714 37.7522 42.4438 37.7812 40.6V38.0625C37.7812 37.8222 37.8833 37.5916 38.065 37.4217C38.2467 37.2517 38.4931 37.1563 38.75 37.1563C39.0069 37.1563 39.2533 37.2517 39.435 37.4217C39.6167 37.5916 39.7187 37.8222 39.7187 38.0625V40.6C39.6839 42.3463 40.1072 44.074 40.9517 45.6318C41.7961 47.1896 43.0359 48.53 44.5625 49.5356C44.6801 49.6088 44.7792 49.705 44.8528 49.8178C44.9264 49.9305 44.9728 50.0569 44.9887 50.1881C45.0056 50.3188 44.9918 50.4514 44.9483 50.5766C44.9048 50.7018 44.8326 50.8167 44.7369 50.9131C44.5883 51.0614 44.4298 51.2007 44.2622 51.33C43.2344 52.1183 41.9488 52.5533 40.6197 52.5625ZM38.75 35.3438C38.4931 35.3438 38.2467 35.2483 38.065 35.0783C37.8833 34.9084 37.7812 34.6779 37.7812 34.4375V32.625C37.7702 32.4274 37.8286 32.2318 37.9476 32.0682C38.0665 31.9045 38.2395 31.7818 38.44 31.7188L47.1587 29C47.3598 28.9365 47.5777 28.9365 47.7787 29L49.8422 29.6434C50.2405 29.0517 50.6807 28.4856 51.1597 27.9488C53.4228 25.3743 54.512 22.07 54.1919 18.7503C54.009 16.8343 53.3628 14.9822 52.3021 13.3342C51.2414 11.6861 49.794 10.2853 48.0693 9.23767C46.3447 8.19002 44.3879 7.52296 42.3471 7.28694C40.3063 7.05092 38.2348 7.25212 36.2894 7.87532C32.8612 8.9942 29.1291 8.9942 25.7009 7.87532C23.8981 7.30433 21.9877 7.09136 20.0919 7.25001C18.1939 7.40479 16.3537 7.93948 14.6959 8.81782C14.4724 8.938 14.207 8.97018 13.9581 8.9073C13.7092 8.84442 13.4972 8.69161 13.3687 8.48251C13.2403 8.2734 13.2059 8.02512 13.2731 7.79228C13.3403 7.55944 13.5037 7.36112 13.7272 7.24094C15.6228 6.23272 17.7267 5.61478 19.8981 5.42844C22.0665 5.24799 24.2512 5.49497 26.3112 6.15344C29.3296 7.15058 32.622 7.15058 35.6403 6.15344C38.8319 5.13145 42.2927 5.11137 45.4975 6.09624C48.7024 7.08112 51.4763 9.01719 53.3982 11.6106C55.3202 14.204 56.2853 17.3132 56.1471 20.4663C56.0088 23.6193 54.7747 26.6441 52.6322 29.0816C52.053 29.7317 51.5374 30.4293 51.0919 31.1659C50.9802 31.3485 50.8041 31.4891 50.5937 31.5635C50.3834 31.6379 50.1519 31.6415 49.9391 31.5738L47.4687 30.8578L39.7187 33.2775V34.4375C39.7187 34.6779 39.6167 34.9084 39.435 35.0783C39.2533 35.2483 39.0069 35.3438 38.75 35.3438Z" fill="#30ACC2"/>
<path d="M31 14.5C27.0839 14.4325 23.2479 13.4513 19.84 11.6453C19.7084 11.5983 19.5895 11.525 19.4913 11.4305C19.3931 11.3361 19.3182 11.2228 19.2716 11.0984C19.2251 10.9741 19.208 10.8418 19.2217 10.7107C19.2354 10.5796 19.2795 10.4529 19.3509 10.3393C19.4223 10.2258 19.5193 10.1282 19.6351 10.0533C19.751 9.97837 19.8829 9.928 20.0216 9.90567C20.1604 9.88333 20.3027 9.88957 20.4386 9.92394C20.5746 9.95831 20.7009 10.02 20.8087 10.1047C23.9326 11.7237 27.4296 12.61 31 12.6875C34.5577 12.6081 38.0417 11.7218 41.1525 10.1047C41.2603 10.02 41.3866 9.95831 41.5226 9.92394C41.6585 9.88957 41.8008 9.88333 41.9396 9.90567C42.0783 9.928 42.2102 9.97837 42.3261 10.0533C42.4419 10.1282 42.5389 10.2258 42.6103 10.3393C42.6817 10.4529 42.7258 10.5796 42.7395 10.7107C42.7532 10.8418 42.7361 10.9741 42.6896 11.0984C42.643 11.2228 42.5681 11.3361 42.4699 11.4305C42.3717 11.525 42.2528 11.5983 42.1212 11.6453C38.7248 13.4454 34.9028 14.4265 31 14.5ZM47.4687 52.5625H47.2556C45.9239 52.285 44.6591 51.7779 43.5259 51.0672C41.727 49.8944 40.2627 48.3271 39.2612 46.5023C38.2598 44.6776 37.7516 42.651 37.7812 40.6V38.0625C37.7812 37.8221 37.8833 37.5916 38.065 37.4217C38.2466 37.2517 38.493 37.1562 38.75 37.1562C39.0069 37.1562 39.2533 37.2517 39.435 37.4217C39.6167 37.5916 39.7187 37.8221 39.7187 38.0625V40.6C39.6839 42.3463 40.1072 44.074 40.9516 45.6318C41.7961 47.1896 43.0359 48.53 44.5625 49.5356C45.4434 50.1038 46.4285 50.5155 47.4687 50.75C51.9734 49.7078 55.2187 45.4847 55.2187 40.6272V33.2775L47.4687 30.8578L39.7187 33.2775V34.4375C39.7187 34.6778 39.6167 34.9084 39.435 35.0783C39.2533 35.2483 39.0069 35.3437 38.75 35.3437C38.493 35.3437 38.2466 35.2483 38.065 35.0783C37.8833 34.9084 37.7812 34.6778 37.7812 34.4375V32.625C37.7702 32.4274 37.8286 32.2318 37.9476 32.0682C38.0665 31.9045 38.2395 31.7818 38.44 31.7187L47.1587 29C47.3598 28.9365 47.5776 28.9365 47.7787 29L56.4975 31.7187C56.698 31.7818 56.8709 31.9045 56.9899 32.0682C57.1088 32.2318 57.1673 32.4274 57.1562 32.625V40.6C57.1562 46.3819 53.1747 51.4025 47.6819 52.5444L47.4687 52.5625Z" fill="#30ACC2"/>
</svg>
