<svg width="424" height="417" viewBox="0 0 424 417" fill="none" xmlns="http://www.w3.org/2000/svg">
<path d="M380.508 204.746C375.447 210.964 370.924 217.601 366.988 224.586L343.868 216.586L271.868 240.586V310.986C271.627 327.114 275.188 343.073 282.263 357.569C289.337 372.065 299.726 384.692 312.588 394.426V399.466C307.364 403.702 301.157 406.553 294.539 407.755C287.922 408.956 281.108 408.47 274.729 406.341C268.349 404.212 262.609 400.508 258.04 395.573C253.471 390.638 250.22 384.63 248.588 378.106L231.308 307.546C230.007 302.356 227.01 297.75 222.792 294.459C218.574 291.168 213.378 289.38 208.028 289.38C202.678 289.38 197.481 291.168 193.264 294.459C189.046 297.75 186.048 302.356 184.748 307.546L167.468 378.106C165.347 386.819 160.361 394.567 153.308 400.106C146.17 405.644 137.382 408.629 128.348 408.586C118.923 408.297 109.878 404.802 102.708 398.678C95.5371 392.555 90.6692 384.169 88.9079 374.906C83.3079 347.866 75.4679 309.466 69.0679 278.906C67.027 268.57 64.1098 258.427 60.3479 248.586C54.4242 232.699 45.9385 217.89 35.2279 204.746C17.5116 183.323 7.83435 156.385 7.86788 128.586C7.86788 125.066 7.86788 121.466 8.34788 117.866C10.978 89.9131 23.2751 63.753 43.1207 43.8929C62.9662 24.0328 89.1172 11.7164 117.068 9.06574C120.668 8.58574 124.268 8.58574 127.868 8.58574C141.123 8.57912 154.288 10.7688 166.828 15.0657C193.456 24.3449 222.44 24.3449 249.068 15.0657C261.557 10.7862 274.666 8.59675 287.868 8.58574C291.388 8.58574 294.988 8.58574 298.588 9.06574C319.753 11.0701 340.014 18.6285 357.321 30.9764C374.628 43.3244 388.367 60.0238 397.148 79.3857C402.689 91.5165 406.125 104.502 407.308 117.786C410.19 149.172 400.558 180.427 380.508 204.746Z" fill="#A1D8DF"/>
<path d="M397.228 79.3857C385.68 116.712 365.193 150.655 337.548 178.266C315.291 200.585 288.843 218.287 259.724 230.355C230.605 242.423 199.388 248.618 167.868 248.586H124.188C107.114 248.382 90.3005 244.378 74.968 236.864C59.6355 229.35 46.1693 218.515 35.5479 205.146V204.746C17.7163 183.367 7.92424 156.425 7.86786 128.586C7.86786 125.066 7.86786 121.466 8.34786 117.866C10.9779 89.9131 23.2751 63.753 43.1206 43.8929C62.9662 24.0328 89.1171 11.7164 117.068 9.06574C120.668 8.58574 124.268 8.58574 127.868 8.58574C141.123 8.57912 154.288 10.7688 166.828 15.0657C193.456 24.3449 222.44 24.3449 249.068 15.0657C261.557 10.7862 274.666 8.59675 287.868 8.58574C291.388 8.58574 294.988 8.58574 298.588 9.06574C319.767 11.0566 340.045 18.6087 357.367 30.9574C374.689 43.3061 388.44 60.0128 397.228 79.3857Z" fill="#D1E6E9"/>
<path d="M415.868 240.586V310.986C415.868 358.426 385.708 398.986 343.868 408.586C333.839 406.379 324.314 402.309 315.788 396.586C301.995 387.027 290.772 374.215 283.111 359.284C275.45 344.354 271.589 327.765 271.868 310.986V240.586L343.868 216.586L366.988 224.586L415.868 240.586Z" fill="#30ACC2"/>
<path d="M335.868 336.586C334.815 336.592 333.771 336.39 332.797 335.992C331.822 335.594 330.935 335.007 330.188 334.266L314.188 318.266C312.681 316.759 311.835 314.716 311.835 312.586C311.835 310.455 312.681 308.412 314.188 306.906C315.694 305.399 317.737 304.553 319.868 304.553C321.998 304.553 324.041 305.399 325.548 306.906L335.868 317.306L370.188 282.906C371.694 281.399 373.737 280.553 375.868 280.553C377.998 280.553 380.041 281.399 381.548 282.906C383.054 284.412 383.901 286.455 383.901 288.586C383.901 290.716 383.054 292.759 381.548 294.266L341.548 334.266C340.8 335.007 339.914 335.594 338.939 335.992C337.964 336.39 336.921 336.592 335.868 336.586Z" fill="#D1E6E9"/>
<path d="M42.4279 52.6657C40.5211 52.6659 38.677 51.985 37.2279 50.7457C36.4294 50.0629 35.7732 49.2294 35.2969 48.293C34.8205 47.3566 34.5333 46.3355 34.4516 45.288C34.3698 44.2405 34.4952 43.1872 34.8206 42.1882C35.146 41.1893 35.665 40.2641 36.3479 39.4657C37.0867 38.6068 37.889 37.8046 38.7479 37.0657C40.3604 35.6866 42.4547 35.0045 44.5701 35.1696C46.6855 35.3346 48.6488 36.3332 50.0279 37.9457C51.407 39.5582 52.0891 41.6526 51.924 43.768C51.759 45.8834 50.7604 47.8466 49.1479 49.2257L48.5079 49.8657C47.7568 50.7439 46.8244 51.4488 45.7748 51.9322C44.7252 52.4156 43.5834 52.6658 42.4279 52.6657ZM287.308 416.586C276.564 416.591 266.128 412.991 257.672 406.363C249.216 399.734 243.229 390.46 240.668 380.026L223.388 309.466C222.521 306.006 220.523 302.935 217.711 300.741C214.899 298.547 211.435 297.355 207.868 297.355C204.301 297.355 200.837 298.547 198.025 300.741C195.213 302.935 193.215 306.006 192.348 309.466L175.068 380.026C172.586 390.478 166.601 399.767 158.108 406.346C151.681 411.392 144.072 414.713 136.003 415.996C127.933 417.279 119.67 416.481 111.995 413.677C104.32 410.873 97.4878 406.156 92.1457 399.973C86.8037 393.79 83.1283 386.346 81.4679 378.346L73.4679 339.306C69.3879 319.626 65.4679 298.586 61.2279 280.106C56.5098 254.414 45.5174 230.286 29.2279 209.866C7.83239 183.908 -2.48478 150.571 0.507882 117.066C2.15276 99.1338 7.60771 81.7597 16.5079 66.1057C17.5687 64.2598 19.3195 62.911 21.3748 62.3558C23.4302 61.8007 25.622 62.0849 27.4679 63.1457C29.3138 64.2066 30.6627 65.9573 31.2178 68.0127C31.7729 70.0681 31.4887 72.2598 30.4279 74.1057C22.6742 87.7955 17.9543 102.992 16.5879 118.666C13.8868 147.952 22.8893 177.117 41.6279 199.786C59.6301 222.241 71.8289 248.781 77.1479 277.066C80.9879 295.466 85.1479 316.506 89.3879 336.266L97.3879 375.306C98.916 382.421 102.824 388.803 108.467 393.399C114.11 397.995 121.15 400.53 128.428 400.586C135.61 400.569 142.586 398.179 148.268 393.786C153.937 389.5 158.019 383.448 159.868 376.586L177.148 305.946C178.882 299.026 182.878 292.885 188.502 288.497C194.126 284.108 201.055 281.725 208.188 281.725C215.321 281.725 222.25 284.108 227.874 288.497C233.497 292.885 237.494 299.026 239.228 305.946L255.868 376.586C257.034 381.346 259.278 385.774 262.426 389.53C265.575 393.285 269.544 396.267 274.027 398.246C278.511 400.225 283.389 401.148 288.285 400.943C293.181 400.738 297.965 399.412 302.268 397.066C289.996 386.37 280.203 373.128 273.572 358.262C266.94 343.396 263.628 327.262 263.868 310.986V288.586C263.868 286.464 264.711 284.429 266.211 282.929C267.711 281.429 269.746 280.586 271.868 280.586C273.99 280.586 276.024 281.429 277.525 282.929C279.025 284.429 279.868 286.464 279.868 288.586V310.986C279.58 326.402 283.076 341.653 290.049 355.405C297.023 369.156 307.261 380.989 319.868 389.866C320.839 390.511 321.657 391.361 322.265 392.356C322.873 393.351 323.256 394.467 323.388 395.626C323.527 396.78 323.413 397.95 323.054 399.055C322.694 400.16 322.099 401.174 321.308 402.026C320.081 403.335 318.772 404.564 317.388 405.706C308.9 412.665 298.284 416.505 287.308 416.586ZM271.868 264.586C269.746 264.586 267.711 263.743 266.211 262.243C264.711 260.742 263.868 258.707 263.868 256.586V240.586C263.777 238.841 264.259 237.115 265.242 235.67C266.224 234.226 267.652 233.142 269.308 232.586L341.308 208.586C342.968 208.025 344.767 208.025 346.428 208.586L363.468 214.266C366.757 209.042 370.392 204.045 374.348 199.306C393.037 176.579 402.031 147.411 399.388 118.106C397.878 101.191 392.541 84.8421 383.782 70.2941C375.023 55.746 363.07 43.3803 348.827 34.132C334.585 24.8838 318.426 18.9953 301.573 16.9118C284.72 14.8283 267.614 16.6044 251.548 22.1057C223.238 31.9827 192.418 31.9827 164.108 22.1057C149.22 17.0653 133.444 15.1853 117.788 16.5857C102.114 17.9521 86.9176 22.6721 73.2279 30.4257C71.382 31.4866 69.1902 31.7707 67.1348 31.2156C65.0795 30.6605 63.3287 29.3116 62.2679 27.4657C61.207 25.6198 60.9229 23.4281 61.478 21.3727C62.0331 19.3173 63.382 17.5666 65.2279 16.5057C80.8819 7.60556 98.2559 2.15061 116.188 0.505731C134.095 -1.08727 152.136 1.093 169.148 6.90573C194.074 15.708 221.262 15.708 246.188 6.90573C272.544 -2.11602 301.124 -2.29331 327.589 6.40078C354.055 15.0949 376.962 32.1857 392.834 55.0793C408.706 77.9729 416.676 105.419 415.534 133.253C414.392 161.087 404.201 187.789 386.508 209.306C381.725 215.045 377.467 221.203 373.788 227.706C372.866 229.317 371.411 230.558 369.674 231.215C367.937 231.872 366.026 231.904 364.268 231.306L343.868 224.986L279.868 246.346V256.586C279.868 258.707 279.025 260.742 277.525 262.243C276.024 263.743 273.99 264.586 271.868 264.586Z" fill="#03426D"/>
<path d="M207.868 80.5857C175.529 79.9899 143.851 71.3279 115.708 55.3857C114.622 54.9705 113.639 54.3235 112.828 53.4898C112.018 52.656 111.399 51.6556 111.014 50.5582C110.63 49.4607 110.489 48.2926 110.602 47.1353C110.715 45.978 111.079 44.8592 111.669 43.8569C112.259 42.8546 113.06 41.9929 114.016 41.3318C114.973 40.6707 116.062 40.2261 117.208 40.0289C118.354 39.8318 119.529 39.8868 120.652 40.1902C121.774 40.4936 122.817 41.0381 123.708 41.7857C149.505 56.0778 178.384 63.9013 207.868 64.5857C237.248 63.8848 266.019 56.0606 291.708 41.7857C292.599 41.0381 293.641 40.4936 294.764 40.1902C295.887 39.8868 297.062 39.8318 298.208 40.0289C299.354 40.2261 300.443 40.6707 301.4 41.3318C302.356 41.9929 303.157 42.8546 303.747 43.8569C304.336 44.8592 304.7 45.978 304.813 47.1353C304.927 48.2926 304.786 49.4607 304.401 50.5582C304.017 51.6556 303.398 52.656 302.587 53.4898C301.777 54.3235 300.794 54.9705 299.708 55.3857C271.66 71.2766 240.098 79.9369 207.868 80.5857ZM343.868 416.586H342.108C331.111 414.136 320.666 409.66 311.308 403.386C296.452 393.033 284.36 379.197 276.09 363.089C267.82 346.981 263.623 329.091 263.868 310.986V288.586C263.868 286.464 264.711 284.429 266.211 282.929C267.711 281.429 269.746 280.586 271.868 280.586C273.99 280.586 276.024 281.429 277.525 282.929C279.025 284.429 279.868 286.464 279.868 288.586V310.986C279.58 326.402 283.076 341.653 290.049 355.405C297.023 369.156 307.261 380.989 319.868 389.866C327.142 394.881 335.278 398.515 343.868 400.586C381.068 391.386 407.868 354.106 407.868 311.226V246.346L343.868 224.986L279.868 246.346V256.586C279.868 258.707 279.025 260.742 277.525 262.243C276.024 263.743 273.99 264.586 271.868 264.586C269.746 264.586 267.711 263.743 266.211 262.243C264.711 260.742 263.868 258.707 263.868 256.586V240.586C263.777 238.841 264.259 237.115 265.242 235.67C266.224 234.226 267.652 233.142 269.308 232.586L341.308 208.586C342.968 208.025 344.767 208.025 346.428 208.586L418.428 232.586C420.084 233.142 421.512 234.226 422.494 235.67C423.476 237.115 423.959 238.841 423.868 240.586V310.986C423.868 362.026 390.988 406.346 345.628 416.426L343.868 416.586Z" fill="#03426D"/>
</svg>
