<svg width="62" height="58" viewBox="0 0 62 58" fill="none" xmlns="http://www.w3.org/2000/svg">
<path d="M17.0595 14.5938H17.0615C18.2987 14.5921 19.5269 14.7831 20.6943 15.1602V15.1611C23.6055 16.1051 26.7694 16.1051 29.6806 15.1611L29.6796 15.1602C30.8473 14.7829 32.076 14.5921 33.3134 14.5938H33.3154C33.6935 14.5938 34.0006 14.5953 34.2978 14.6318L34.3144 14.6338L34.331 14.6348C35.5049 14.739 36.652 15.0214 37.7265 15.4688L37.7363 15.4727C40.3418 16.5255 42.4143 18.4438 43.5644 20.833L43.5654 20.834C44.61 22.9992 44.8148 25.431 44.1513 27.7178L44.1445 27.7168C43.7364 29.1316 43.007 30.4532 42.0019 31.5908L41.9951 31.5986L41.9892 31.6055C40.1469 33.7733 38.8875 36.3318 38.3252 39.0635C37.6665 42.0807 36.8436 45.8313 36.2724 48.4033C36.1373 49.0113 35.7817 49.5716 35.248 49.9854C34.7132 50.3999 34.0347 50.6392 33.3222 50.6514C32.6097 50.6636 31.9211 50.4478 31.3691 50.0508C30.8872 49.7042 30.5379 49.2405 30.3515 48.7256L30.2812 48.502L28.5283 41.7881C28.3397 41.0591 27.8988 40.4239 27.292 39.9766C26.685 39.5293 25.9434 39.292 25.1875 39.292C24.4317 39.292 23.6908 39.5294 23.0839 39.9766C22.477 40.4239 22.0352 41.059 21.8466 41.7881L20.0937 48.502C19.9345 49.1057 19.5566 49.6546 19.0058 50.0508C18.4538 50.4478 17.7652 50.6636 17.0527 50.6514C16.3402 50.6392 15.6617 50.3999 15.1269 49.9854C14.5933 49.5716 14.2376 49.0113 14.1025 48.4033C13.5313 45.8311 12.7089 42.0641 12.0498 39.0625L12.0488 39.0605C11.8802 38.2988 11.6607 37.5479 11.3916 36.8125C10.7419 34.9102 9.71925 33.1416 8.37887 31.5977L8.37301 31.5908C6.72672 29.7299 5.83748 27.3995 5.84371 25.0059V24.0254C6.10325 21.6282 7.24414 19.3766 9.09176 17.6602C10.9484 15.9354 13.4003 14.8614 16.0283 14.6367C16.2225 14.6342 16.4103 14.624 16.5693 14.6143C16.7583 14.6026 16.9115 14.5938 17.0595 14.5938Z" fill="white" stroke="#30ACC2" stroke-width="2"/>
<path d="M25.1875 20.59C21.8697 20.5322 18.6198 19.7005 15.7325 18.1704C15.557 18.0326 15.4395 17.8411 15.4006 17.6299C15.3618 17.4187 15.4042 17.2015 15.5203 17.0168C15.6365 16.8321 15.8188 16.6918 16.035 16.621C16.2512 16.5501 16.4873 16.5532 16.7013 16.6297C19.303 17.9764 22.2148 18.7134 25.1875 18.7775C28.148 18.714 31.0474 17.9768 33.635 16.6297C33.7429 16.545 33.8691 16.4834 34.0051 16.449C34.141 16.4146 34.2833 16.4084 34.4221 16.4307C34.5609 16.4531 34.6928 16.5034 34.8086 16.5783C34.9244 16.6532 35.0214 16.7508 35.0928 16.8644C35.1642 16.9779 35.2083 17.1046 35.222 17.2357C35.2357 17.3669 35.2187 17.4992 35.1721 17.6235C35.1256 17.7478 35.0506 17.8611 34.9524 17.9556C34.8543 18.05 34.7353 18.1233 34.6038 18.1704C31.7279 19.6947 28.4921 20.5262 25.1875 20.59Z" fill="#30ACC2"/>
<path d="M42.625 12.6875C42.3681 12.6875 42.1217 12.592 41.94 12.4221C41.7583 12.2521 41.6562 12.0216 41.6562 11.7813V7.25C41.6562 7.00965 41.7583 6.77914 41.94 6.60918C42.1217 6.43923 42.3681 6.34375 42.625 6.34375C42.8819 6.34375 43.1283 6.43923 43.31 6.60918C43.4917 6.77914 43.5938 7.00965 43.5938 7.25V11.7813C43.5938 12.0216 43.4917 12.2521 43.31 12.4221C43.1283 12.592 42.8819 12.6875 42.625 12.6875ZM57.1562 21.75H52.3125C52.0556 21.75 51.8092 21.6545 51.6275 21.4846C51.4458 21.3146 51.3438 21.0841 51.3438 20.8438C51.3438 20.6034 51.4458 20.3729 51.6275 20.2029C51.8092 20.033 52.0556 19.9375 52.3125 19.9375H57.1562C57.4132 19.9375 57.6596 20.033 57.8413 20.2029C58.0229 20.3729 58.125 20.6034 58.125 20.8438C58.125 21.0841 58.0229 21.3146 57.8413 21.4846C57.6596 21.6545 57.4132 21.75 57.1562 21.75ZM52.9034 31.3653C52.7753 31.3648 52.6485 31.3405 52.5304 31.2939C52.4123 31.2472 52.3053 31.1791 52.2156 31.0934L48.7863 27.8944C48.6959 27.8099 48.6243 27.7096 48.5754 27.5992C48.5265 27.4888 48.5013 27.3704 48.5013 27.2509C48.5013 27.1314 48.5265 27.0131 48.5754 26.9027C48.6243 26.7923 48.6959 26.692 48.7863 26.6075C48.8766 26.523 48.9838 26.456 49.1018 26.4102C49.2198 26.3645 49.3463 26.341 49.4741 26.341C49.6018 26.341 49.7283 26.3645 49.8463 26.4102C49.9643 26.456 50.0715 26.523 50.1619 26.6075L53.5816 29.8156C53.762 29.9854 53.8633 30.2151 53.8633 30.4545C53.8633 30.694 53.762 30.9236 53.5816 31.0934C53.4027 31.2642 53.159 31.3619 52.9034 31.3653ZM49.4741 15.3428C49.3466 15.3435 49.2202 15.3206 49.1022 15.2755C48.9841 15.2304 48.8768 15.164 48.7863 15.08C48.6955 14.9958 48.6234 14.8955 48.5742 14.7851C48.525 14.6747 48.4997 14.5562 48.4997 14.4366C48.4997 14.3169 48.525 14.1985 48.5742 14.088C48.6234 13.9776 48.6955 13.8774 48.7863 13.7931L52.2156 10.5941C52.3025 10.4992 52.4093 10.4221 52.5295 10.3677C52.6497 10.3134 52.7806 10.2828 52.914 10.278C53.0475 10.2731 53.1805 10.2942 53.3048 10.3397C53.4291 10.3853 53.542 10.4544 53.6364 10.5427C53.7309 10.631 53.8047 10.7367 53.8534 10.853C53.9021 10.9693 53.9246 11.0937 53.9195 11.2185C53.9143 11.3433 53.8816 11.4658 53.8235 11.5782C53.7653 11.6907 53.683 11.7906 53.5816 11.8719L50.1619 15.08C50.0714 15.164 49.964 15.2304 49.846 15.2755C49.7279 15.3206 49.6016 15.3435 49.4741 15.3428Z" fill="#30ACC2"/>
</svg>
